PathFileType	4	(x/y/z)	S10_PSF_T15
DataRate	CameraRate	NumFrames	NumMarkers	Units	OrigDataRate	OrigDataStartFrame	OrigNumFrames
240	240	8	51	mm	240	220	439
Frame#	Time	Sternum			R.Acromium			L.Acromium			Top.Head			R.ASIS			L.ASIS			R.PSIS			L.PSIS			R.Great.Tro			L.Great.Tro			R.Iliac.Crest			L.Iliac.Crest			V.Sacral			R.Thigh.Upper.Post			R.Thigh.Lower.Ant			R.Thigh.Lower.Post			R.Thigh.Upper.Ant			R.Knee.Lat			R.Knee.Med			R.Shank.Upper.Post			R.Shank.Lower.Ant			R.Shank.Lower.Post			R.Shank.Upper.Ant			R.Ankle.Lat			R.Ankle.Med			R.Heel.Upper			R.Heel.Med			R.Heel.Lat			R.Toe.Lat			R.Toe.Med			R.Toe.Tip			L.Thigh.Upper.Post			L.Thigh.Lower.Ant			L.Thigh.Lower.Post			L.Thigh.Upper.Ant			L.Knee.Lat			L.Knee.Med			L.Shank.Upper.Post			L.Shank.Lower.Ant			L.Shank.Lower.Post			L.Shank.Upper.Ant			L.Ankle.Lat			L.Ankle.Med			L.Heel.Upper			L.Heel.Med			L.Heel.Lat			L.Toe.Lat			L.Toe.Med			L.Toe.Tip			Cervical.Spine			Back			
		X1	Y1	Z1	X2	Y2	Z2	X3	Y3	Z3	X4	Y4	Z4	X5	Y5	Z5	X6	Y6	Z6	X7	Y7	Z7	X8	Y8	Z8	X9	Y9	Z9	X10	Y10	Z10	X11	Y11	Z11	X12	Y12	Z12	X13	Y13	Z13	X14	Y14	Z14	X15	Y15	Z15	X16	Y16	Z16	X17	Y17	Z17	X18	Y18	Z18	X19	Y19	Z19	X20	Y20	Z20	X21	Y21	Z21	X22	Y22	Z22	X23	Y23	Z23	X24	Y24	Z24	X25	Y25	Z25	X26	Y26	Z26	X27	Y27	Z27	X28	Y28	Z28	X29	Y29	Z29	X30	Y30	Z30	X31	Y31	Z31	X32	Y32	Z32	X33	Y33	Z33	X34	Y34	Z34	X35	Y35	Z35	X36	Y36	Z36	X37	Y37	Z37	X38	Y38	Z38	X39	Y39	Z39	X40	Y40	Z40	X41	Y41	Z41	X42	Y42	Z42	X43	Y43	Z43	X44	Y44	Z44	X45	Y45	Z45	X46	Y46	Z46	X47	Y47	Z47	X48	Y48	Z48	X49	Y49	Z49	X50	Y50	Z50	X51	Y51	Z51	

220	0.9125	-293.07	1284	351.25	-404.25	1434.3	516.83	-419.43	1465.3	211.14	-462.27	1754.7	394.17	-337.78	1020.8	462.73	-352.34	1031.5	232.05	-544.07	1034.1	386.73	-543.45	1039	306.12	-402.11	943.3	539.86	-416.12	961.88	179.19	-435.4	1097.6	512.56	-424.57	1102.1	207.91	-564.86	1002.2	352.38	-383.68	729.08	523.7	-328.68	654.57	480.13	-389.53	640.59	509.62	-320.88	744.97	489.56	-395.9	515.72	466.1	-409.67	524.79	340.48	-482.76	294.03	462.36	-422.72	227.43	443.92	-487	220.2	454.01	-412.13	303.52	451.09	-477.9	111.83	429.23	-468.61	126.14	351.57	-544.92	66.776	385.07	-534.44	37.629	358.32	-537.61	42.486	419.95	-364.78	39.485	462.07	-337.38	44.077	351.03	-278.57	59.35	393.06	-362.96	681.66	176.5	-262.48	631.6	177.38	-326.56	593.48	191.72	-293.73	715.48	162.14	-280.37	530.64	187.76	-230.42	520.47	313.38	-446.49	407.9	208.38	-450.36	297.23	204.71	-491.75	344.86	216.6	-404.97	359.42	196.83	-548.37	230.36	223.53	-513.92	220.51	301.62	-603.95	246.71	280.09	-613.03	213.66	311.36	-626.03	224.96	248.86	-518.48	99.109	180.59	-476.67	77.039	278.89	-436.47	57.444	223.63	-491.62	1504.8	380.63	-576.72	1297.6	364.15
221	0.91667	-288.28	1284.4	351.43	-398.63	1435.1	516.97	-414.99	1465.4	211.29	-456.94	1755	394.1	-333.05	1020.8	463.16	-347.64	1032.1	232.47	-539.31	1034.4	386.97	-538.76	1039.5	306.36	-397.59	943.11	540.05	-411.02	962.86	179.22	-430.31	1097.5	513	-419.79	1102.7	208.39	-560.07	1002.4	352.52	-380.78	728.93	523.64	-326.27	654.04	480.12	-387.27	640.5	509.48	-317.79	744.35	489.69	-394.74	515.69	466.18	-408.27	524.8	340.45	-482.3	294.28	462.32	-422.37	227.53	443.94	-486.71	220.46	453.96	-411.62	303.61	451.13	-477.73	111.99	429.17	-468.49	126.35	351.52	-544.91	66.864	384.99	-534.41	37.666	358.23	-537.57	42.608	419.91	-364.75	39.491	462.04	-337.35	44	350.99	-278.5	59.222	393.03	-355.86	682.9	175.95	-255.15	633.53	177.57	-318.98	594.93	191.27	-286.77	717.26	162.16	-272.34	532.18	187.98	-222.88	522.71	313.65	-436.62	406.23	208.44	-438.4	295.55	204.74	-480.64	342.34	216.59	-394.2	358.57	196.89	-535	226.68	223.4	-500.48	217.51	301.47	-591.33	241.48	280.04	-599.47	208.08	311.19	-612.73	219.21	248.75	-501.74	96.541	180.17	-459.45	75.311	278.42	-418.72	56.898	223.13	-486.5	1505.2	380.97	-571.71	1298	364.97
222	0.92083	-283.47	1284.8	351.63	-393.02	1435.8	517.1	-410.54	1465.5	211.45	-451.61	1755.3	394	-328.3	1020.7	463.57	-342.94	1032.7	232.88	-534.56	1034.6	387.19	-534.06	1039.8	306.57	-393.09	942.89	540.22	-405.91	963.77	179.25	-425.19	1097.3	513.41	-414.98	1103.3	208.85	-555.28	1002.7	352.65	-377.87	728.77	523.58	-323.86	653.51	480.11	-385	640.41	509.36	-314.71	743.73	489.82	-393.56	515.66	466.26	-406.88	524.79	340.43	-481.82	294.52	462.3	-422.02	227.62	443.94	-486.4	220.72	453.92	-411.09	303.69	451.17	-477.57	112.16	429.12	-468.37	126.56	351.48	-544.9	66.951	384.91	-534.38	37.703	358.13	-537.53	42.727	419.86	-364.73	39.496	462.01	-337.32	43.922	350.96	-278.44	59.091	393.01	-348.83	684.1	175.42	-247.93	635.37	177.8	-311.51	596.34	190.87	-279.87	718.96	162.19	-264.43	533.66	188.23	-215.49	524.88	313.95	-426.75	404.43	208.49	-426.38	293.79	204.75	-469.49	339.7	216.57	-383.41	357.63	196.94	-521.49	222.87	223.24	-486.91	214.42	301.31	-578.54	236.11	279.92	-585.73	202.37	310.96	-599.24	213.32	248.57	-484.86	93.928	179.75	-442.11	73.59	277.97	-400.86	56.371	222.67	-481.39	1505.5	381.31	-566.7	1298.4	365.78
223	0.925	-278.66	1285.1	351.82	-387.42	1436.5	517.22	-406.06	1465.5	211.6	-446.27	1755.6	393.89	-323.54	1020.5	463.94	-338.24	1033.2	233.26	-529.8	1034.7	387.39	-529.36	1040.1	306.78	-388.6	942.63	540.38	-400.8	964.61	179.27	-420.04	1097.2	513.8	-410.14	1103.8	209.29	-550.49	1002.8	352.78	-374.96	728.59	523.52	-321.44	652.96	480.08	-382.72	640.29	509.25	-311.63	743.09	489.94	-392.38	515.61	466.35	-405.48	524.78	340.42	-481.31	294.76	462.29	-421.64	227.71	443.94	-486.08	220.98	453.89	-410.55	303.78	451.21	-477.4	112.32	429.07	-468.26	126.77	351.45	-544.9	67.037	384.84	-534.36	37.74	358.04	-537.49	42.845	419.82	-364.7	39.499	461.98	-337.29	43.843	350.92	-278.37	58.956	392.98	-341.87	685.24	174.93	-240.84	637.12	178.07	-304.14	597.69	190.53	-273.02	720.58	162.24	-256.64	535.06	188.51	-208.23	526.96	314.27	-416.88	402.51	208.54	-414.28	291.94	204.75	-458.28	336.94	216.52	-372.61	356.61	196.99	-507.83	218.96	223.04	-473.21	211.25	301.13	-565.58	230.61	279.75	-571.82	196.57	310.69	-585.54	207.31	248.35	-467.82	91.277	179.33	-424.65	71.88	277.55	-382.91	55.868	222.24	-476.27	1505.8	381.62	-561.69	1298.8	366.56
224	0.92917	-273.83	1285.4	352.03	-381.83	1437.2	517.34	-401.55	1465.5	211.74	-440.92	1755.8	393.76	-318.78	1020.3	464.29	-333.53	1033.7	233.62	-525.03	1034.9	387.58	-524.66	1040.3	306.96	-384.13	942.34	540.53	-395.69	965.37	179.29	-414.88	1097	514.16	-405.28	1104.2	209.71	-545.7	1003	352.89	-372.04	728.4	523.47	-319.03	652.4	480.06	-380.42	640.17	509.15	-308.56	742.44	490.05	-391.18	515.56	466.45	-404.09	524.76	340.42	-480.79	295	462.3	-421.26	227.8	443.94	-485.73	221.23	453.88	-409.99	303.86	451.26	-477.24	112.48	429.03	-468.13	126.99	351.42	-544.9	67.122	384.76	-534.34	37.778	357.95	-537.45	42.96	419.78	-364.67	39.5	461.95	-337.26	43.765	350.89	-278.3	58.818	392.95	-334.97	686.34	174.47	-233.87	638.77	178.37	-296.88	598.99	190.23	-266.24	722.12	162.3	-248.96	536.4	188.8	-201.11	528.97	314.6	-406.99	400.46	208.57	-402.12	290.01	204.74	-447.02	334.06	216.46	-361.8	355.5	197.04	-494.01	214.95	222.81	-459.36	208	300.94	-552.44	224.99	279.53	-557.73	190.68	310.37	-571.64	201.19	248.09	-450.64	88.601	178.92	-407.08	70.188	277.15	-364.86	55.394	221.84	-471.16	1506	381.93	-556.67	1299	367.32
225	0.93333	-268.99	1285.6	352.23	-376.25	1437.8	517.44	-397.02	1465.4	211.89	-435.58	1756	393.61	-313.99	1020.1	464.62	-328.81	1034	233.96	-520.26	1034.9	387.76	-519.95	1040.5	307.14	-379.67	942.02	540.67	-390.59	966.07	179.31	-409.72	1096.7	514.49	-400.4	1104.6	210.12	-540.9	1003	352.99	-369.12	728.19	523.42	-316.61	651.83	480.03	-378.1	640.04	509.06	-305.49	741.79	490.15	-389.97	515.5	466.55	-402.68	524.73	340.42	-480.24	295.22	462.33	-420.86	227.89	443.93	-485.37	221.48	453.88	-409.42	303.95	451.3	-477.07	112.64	428.99	-468	127.21	351.4	-544.9	67.206	384.67	-534.31	37.817	357.86	-537.41	43.073	419.73	-364.64	39.5	461.92	-337.24	43.689	350.86	-278.24	58.678	392.93	-328.15	687.38	174.05	-227.01	640.33	178.71	-289.73	600.23	189.98	-259.53	723.59	162.39	-241.4	537.66	189.12	-194.13	530.88	314.95	-397.1	398.29	208.6	-389.88	288.01	204.72	-435.71	331.07	216.39	-350.97	354.32	197.08	-480.05	210.85	222.55	-445.37	204.68	300.74	-539.12	219.27	279.25	-543.45	184.72	310.01	-557.54	194.97	247.78	-433.33	85.909	178.51	-389.39	68.519	276.77	-346.73	54.956	221.47	-466.05	1506.2	382.22	-551.65	1299.3	368.07
226	0.9375	-264.14	1285.8	352.43	-370.68	1438.4	517.54	-392.47	1465.3	212.02	-430.23	1756.2	393.44	-309.2	1019.8	464.91	-324.08	1034.3	234.27	-515.49	1034.9	387.91	-515.22	1040.6	307.29	-375.21	941.66	540.79	-385.48	966.7	179.32	-404.56	1096.5	514.8	-395.53	1104.9	210.5	-536.09	1003	353.07	-366.2	727.97	523.38	-314.18	651.24	480	-375.78	639.89	508.98	-302.42	741.11	490.24	-388.76	515.43	466.66	-401.26	524.69	340.44	-479.68	295.45	462.37	-420.46	227.98	443.92	-484.99	221.72	453.9	-408.84	304.04	451.35	-476.91	112.8	428.95	-467.87	127.43	351.38	-544.89	67.289	384.59	-534.29	37.858	357.78	-537.37	43.182	419.68	-364.61	39.497	461.89	-337.22	43.615	350.82	-278.17	58.535	392.91	-321.4	688.37	173.66	-220.25	641.78	179.08	-282.69	601.4	189.79	-252.87	724.97	162.5	-233.96	538.85	189.45	-187.28	532.69	315.31	-387.19	395.99	208.61	-377.58	285.94	204.69	-424.33	327.98	216.29	-340.12	353.06	197.12	-465.94	206.68	222.26	-431.22	201.3	300.53	-525.6	213.45	278.93	-528.98	178.7	309.61	-543.22	188.68	247.43	-415.89	83.213	178.1	-371.6	66.879	276.39	-328.52	54.556	221.13	-460.94	1506.3	382.5	-546.62	1299.5	368.8
227	0.94167	-259.27	1285.9	352.63	-365.11	1438.9	517.63	-387.88	1465.1	212.15	-424.87	1756.3	393.26	-304.39	1019.5	465.18	-319.33	1034.6	234.56	-510.7	1034.9	388.05	-510.49	1040.7	307.43	-370.76	941.28	540.89	-380.38	967.27	179.34	-399.41	1096.2	515.08	-390.65	1105.1	210.86	-531.29	1003	353.15	-363.26	727.73	523.34	-311.75	650.64	479.97	-373.45	639.73	508.92	-299.34	740.43	490.34	-387.53	515.35	466.78	-399.83	524.64	340.46	-479.1	295.67	462.42	-420.04	228.07	443.9	-484.61	221.96	453.92	-408.26	304.13	451.41	-476.74	112.96	428.92	-467.73	127.65	351.36	-544.88	67.371	384.52	-534.27	37.901	357.71	-537.33	43.288	419.63	-364.58	39.493	461.87	-337.2	43.546	350.79	-278.1	58.391	392.89	-314.72	689.3	173.31	-213.6	643.13	179.48	-275.75	602.51	189.66	-246.29	726.26	162.63	-226.64	539.95	189.81	-180.55	534.4	315.68	-377.27	393.58	208.61	-365.21	283.81	204.64	-412.9	324.78	216.18	-329.26	351.73	197.15	-451.68	202.45	221.94	-416.92	197.87	300.31	-511.87	207.55	278.56	-514.31	172.63	309.17	-528.69	182.32	247.04	-398.31	80.523	177.7	-353.71	65.275	276.04	-310.25	54.203	220.8	-455.82	1506.4	382.77	-541.6	1299.6	369.52
